<?xml version="1.0" standalone="no"?>
<!DOCTYPE svg PUBLIC "-//W3C//DTD SVG 20010904//EN"
 "http://www.w3.org/TR/2001/REC-SVG-20010904/DTD/svg10.dtd">
<svg version="1.0" xmlns="http://www.w3.org/2000/svg"
 width="200.000000pt" height="200.000000pt" viewBox="0 0 200.000000 200.000000"
 preserveAspectRatio="xMidYMid meet">
<metadata>
Created by potrace 1.15, written by Peter Selinger 2001-2017
</metadata>
<g transform="translate(0.000000,200.000000) scale(0.100000,-0.100000)"
fill="#000000" stroke="none">
<path d="M936 1725 c-20 -30 -26 -31 -53 -6 -20 19 -20 19 -37 -10 -19 -32
-37 -37 -56 -14 -19 23 -27 18 -34 -20 -7 -38 -15 -42 -46 -23 -10 7 -21 10
-24 7 -5 -4 -12 -35 -15 -60 -1 -4 -17 -3 -36 1 l-35 8 0 -40 0 -40 -36 7
c-35 6 -36 5 -30 -18 3 -14 9 -32 12 -41 5 -13 -1 -16 -35 -16 l-41 0 14 -35
15 -36 -30 -6 c-38 -7 -44 -18 -25 -45 19 -27 20 -38 3 -38 -7 0 -21 -6 -31
-13 -16 -12 -16 -14 4 -37 l21 -25 -28 -23 -28 -23 27 -24 28 -24 -28 -21 -27
-22 28 -24 c24 -21 26 -26 15 -44 -7 -11 -16 -20 -20 -20 -21 0 -4 -19 28 -31
l36 -14 -23 -28 c-18 -24 -20 -31 -8 -38 8 -5 24 -9 36 -9 21 0 22 -1 8 -40
l-14 -40 36 0 c34 0 35 -1 31 -35 -4 -34 -3 -35 29 -35 31 0 33 -2 33 -36 0
-36 0 -37 35 -31 19 3 36 2 36 -4 1 -5 3 -13 4 -19 1 -5 3 -16 4 -24 1 -15 35
-11 57 6 8 6 14 -3 18 -27 8 -39 10 -40 48 -21 25 13 27 13 38 -15 15 -34 24
-36 52 -9 l22 20 19 -30 c23 -37 30 -37 52 -4 l17 26 26 -25 26 -26 22 30 23
31 17 -21 c25 -28 37 -26 52 9 13 28 15 29 35 15 33 -23 44 -18 51 20 l7 35
30 -16 c39 -20 45 -15 48 36 1 18 5 20 36 14 35 -6 35 -6 35 30 0 35 1 36 35
36 36 0 36 0 29 35 -6 35 -6 35 30 35 41 0 42 3 21 44 -9 16 -14 30 -13 31 2
1 18 6 35 11 33 9 33 9 18 38 -19 36 -20 31 15 46 36 15 36 15 10 47 -20 26
-19 43 4 43 8 0 19 6 25 14 9 11 6 18 -16 36 l-28 22 28 22 27 22 -31 23 -31
23 24 25 c23 24 23 25 4 39 -11 8 -26 14 -33 14 -17 0 -16 6 3 35 19 29 11 45
-23 45 -26 0 -27 3 -12 60 3 11 -5 16 -29 18 -31 3 -33 5 -30 40 3 36 2 37
-29 34 -32 -2 -33 -1 -33 37 l0 40 -32 -10 c-37 -10 -36 -11 -41 26 -4 30 -11
33 -53 20 -18 -6 -22 -2 -28 29 -8 40 -12 42 -40 21 -30 -22 -44 -18 -51 15
-8 35 -15 37 -40 10 -21 -23 -45 -26 -45 -6 0 7 -7 19 -16 27 -13 11 -19 8
-38 -15 l-22 -28 -17 26 c-22 32 -30 33 -51 1z m177 -100 c179 -38 336 -186
382 -360 59 -227 -39 -459 -245 -577 -148 -86 -372 -80 -509 11 -145 97 -228
235 -238 396 -10 152 42 291 149 397 124 121 290 169 461 133z"/>
<path d="M900 1609 c-75 -15 -168 -67 -235 -133 -106 -104 -150 -219 -143
-370 8 -153 73 -276 196 -368 165 -124 404 -126 570 -3 94 69 163 167 192 274
18 70 14 196 -10 273 -23 74 -83 163 -151 222 -108 95 -268 135 -419 105z"/>
<path d="M452 502 c-7 -2 -12 -12 -12 -23 0 -10 -4 -19 -10 -19 -5 0 -10 -5
-10 -11 0 -5 4 -8 9 -5 24 16 19 -120 -5 -144 -7 -7 -11 -7 -12 2 -2 22 -7 43
-15 56 -5 6 -5 12 -1 12 3 0 1 6 -5 14 -8 10 -9 16 -1 21 15 9 12 35 -4 29
-14 -5 -30 22 -21 37 3 4 -6 11 -21 15 -29 7 -46 -8 -37 -35 4 -13 1 -12 -10
2 -9 11 -18 14 -21 8 -4 -6 2 -18 13 -28 11 -9 17 -21 13 -27 -3 -6 -8 -22
-10 -36 -2 -13 -7 -27 -11 -30 -5 -3 -7 -13 -6 -22 6 -34 -23 -26 -44 13 l-22
39 25 31 c26 31 34 63 17 73 -5 3 -17 -7 -27 -22 -42 -64 -68 -64 -69 1 0 25
-5 33 -21 35 -12 2 -24 -4 -27 -12 -4 -9 -2 -16 3 -16 6 0 10 -32 10 -71 0
-44 -4 -68 -10 -64 -5 3 -10 1 -10 -4 0 -6 6 -11 13 -11 7 0 8 -3 2 -8 -5 -4
-11 -15 -13 -26 -3 -16 2 -17 38 -13 23 2 47 10 53 16 15 15 -6 14 -22 -1 -11
-10 -12 -10 -7 -1 4 7 2 22 -4 34 -9 16 -9 24 0 33 10 8 14 8 18 -3 2 -7 13
-22 22 -31 10 -10 20 -26 22 -37 2 -13 12 -18 38 -18 28 0 37 5 48 28 7 15 18
27 23 27 6 0 7 -4 4 -10 -3 -5 0 -10 8 -10 8 0 24 -9 37 -20 24 -21 50 -26 50
-10 0 5 6 7 13 5 29 -11 40 12 40 83 -1 65 1 69 20 64 16 -4 19 -2 14 11 -4
10 -2 17 2 17 11 0 21 -26 17 -42 -3 -7 -7 -41 -10 -75 -6 -62 -5 -63 20 -63
17 0 23 4 18 12 -5 8 -2 9 11 4 15 -5 16 -4 5 9 -13 16 -16 145 -3 145 17 0
28 -35 29 -89 0 -49 4 -67 17 -75 13 -8 20 -6 32 9 14 19 15 19 8 1 -5 -15 -3
-18 10 -13 8 3 17 1 20 -6 4 -12 67 28 67 44 0 17 -20 9 -21 -8 0 -13 -4 -10
-12 8 -13 28 -10 142 3 134 10 -6 20 32 14 50 -3 7 -12 16 -20 19 -19 7 -69
-24 -55 -34 14 -8 19 -115 7 -127 -5 -4 -11 -2 -13 5 -3 6 -9 9 -14 6 -6 -3
-3 -11 7 -18 10 -8 14 -18 9 -26 -14 -23 -33 28 -25 69 3 20 6 52 6 71 -1 31
-4 35 -29 38 -16 2 -36 -3 -46 -12 -16 -14 -19 -14 -37 3 -21 19 -61 30 -82
23z"/>
<path d="M1136 493 c-13 -13 -20 -15 -23 -5 -15 39 -47 -33 -55 -124 -1 -6
-10 -9 -20 -6 -18 4 -21 19 -21 98 0 26 -3 31 -21 29 -36 -4 -37 -5 -31 -15 4
-6 1 -18 -6 -26 -9 -11 -8 -18 6 -34 9 -10 19 -34 21 -52 7 -63 21 -108 34
-108 22 0 40 14 40 31 0 10 7 19 15 19 8 0 15 9 15 20 0 11 -5 20 -10 20 -7 0
-7 6 0 20 6 11 8 20 5 20 -3 0 1 10 10 23 8 13 13 26 10 29 -3 3 1 11 10 18
17 14 16 15 19 -53 2 -33 -2 -51 -11 -54 -22 -9 -16 -59 10 -76 19 -12 26 -12
40 -2 19 14 23 40 6 50 -14 9 -7 115 8 115 6 0 11 12 9 28 -4 53 -27 66 -60
35z"/>
<path d="M1233 483 c-12 -13 -24 -34 -24 -46 -3 -42 -1 -92 4 -119 4 -18 1
-28 -6 -29 -7 0 -1 -5 13 -11 25 -11 108 -13 118 -4 2 3 6 23 8 45 2 30 0 39
-11 37 -19 -3 -26 -10 -29 -32 -1 -9 -12 -21 -24 -25 -18 -7 -22 -5 -22 11 0
10 -4 21 -10 25 -5 3 -7 12 -3 20 3 9 1 21 -4 28 -12 17 -10 38 7 65 18 27 30
29 23 2 -3 -12 0 -20 6 -20 7 0 9 5 6 10 -3 6 -1 10 4 10 6 0 11 -4 11 -10 0
-14 33 -13 48 2 7 7 12 8 12 4 0 -5 8 -2 17 5 15 12 16 12 10 -3 -3 -10 1 -24
10 -33 12 -12 14 -30 10 -77 -3 -34 -3 -68 0 -75 6 -15 33 -18 33 -4 0 5 9 7
20 4 12 -3 20 0 20 6 0 7 -4 9 -10 6 -6 -3 -7 1 -4 9 3 9 1 16 -5 16 -7 0 -11
26 -11 73 l0 72 34 1 c37 0 39 -5 21 -68 -4 -16 -4 -36 0 -45 5 -10 9 -24 11
-31 1 -8 10 -22 19 -32 16 -17 23 -18 113 -7 33 5 57 17 33 17 -10 0 -9 7 3
25 9 14 14 25 10 25 -4 0 -1 6 5 14 8 10 7 22 -4 49 -8 20 -19 39 -25 42 -6 4
-8 10 -5 15 15 24 -74 46 -115 30 -12 -5 -46 3 -52 13 -4 7 -15 7 -35 -1 -29
-12 -44 -11 -77 3 -13 6 -23 3 -31 -9 -12 -16 -14 -16 -31 1 -25 25 -63 23
-91 -4z"/>
<path d="M1700 481 c0 -11 5 -21 12 -23 8 -3 13 -32 13 -90 1 -60 -2 -85 -10
-81 -7 2 -12 -2 -12 -10 0 -15 48 -17 59 -2 4 5 6 27 4 47 -4 36 6 50 19 28 4
-6 10 -8 14 -6 4 3 8 -7 9 -21 3 -38 21 -54 56 -51 31 3 31 4 31 60 1 31 -2
55 -6 52 -4 -2 -4 10 1 26 11 39 -3 80 -27 81 -162 9 -163 9 -163 -10z"/>
</g>
</svg>
